# xmcd
#
# Track frame offsets:
#	150
#	23499
#	46060
#	65771
#	85212
#	101248
#	120374
#	137108
#	156047
#	177558
#	197119
#	220438
#	242887
#	262688
#	282167
#	298286
#	317255
#	338766
#
# Disc length: 4773 seconds
#
# Revision: 0
# Processed by: cddbd v1.5.2PL0 Copyright (c) Steve Scherf et al.
# Submitted via: EasyCDDAExtractor 2010.6.0.0
#
DISCID=0812a312
DTITLE=Carla Carvalho - Deus Te Faz Vencer
DYEAR=2010
DGENRE=Gospel
TTITLE0=A Mulher Cananeia
TTITLE1=Explosao De Poder
TTITLE2=Deus Vai Te Exaltar
TTITLE3=Quem E
TTITLE4=Conte Para Ele
TTITLE5=Estou Contigo
TTITLE6=Jeova Vem Ai
TTITLE7=Deus Te Faz Vencer
TTITLE8=Eu Conheco Ele
TTITLE9=Pra Chegar Aqui
TTITLE10=A Mulher Cananeia (Pb)
TTITLE11=Explosao De Poder (Pb)
TTITLE12=Deus Vai Te Exaltar (Pb)
TTITLE13=Quem E (Pb)
TTITLE14=Conte Para Ele (Pb)
TTITLE15=Estou Contigo (Pb)
TTITLE16=Jeova Vem Ai (Pb)
TTITLE17=Deus Te Faz Vencer (Pb)
EXTD=
EXTT0=
EXTT1=
EXTT2=
EXTT3=
EXTT4=
EXTT5=
EXTT6=
EXTT7=
EXTT8=
EXTT9=
EXTT10=
EXTT11=
EXTT12=
EXTT13=
EXTT14=
EXTT15=
EXTT16=
EXTT17=
PLAYORDER=
